<?xml version="1.0" encoding="utf-8"?>
<!-- Generator: Adobe Illustrator 16.0.0, SVG Export Plug-In . SVG Version: 6.00 Build 0)  -->
<!DOCTYPE svg PUBLIC "-//W3C//DTD SVG 1.1//EN" "http://www.w3.org/Graphics/SVG/1.1/DTD/svg11.dtd">
<svg version="1.1" id="Layer_1" xmlns="http://www.w3.org/2000/svg" xmlns:xlink="http://www.w3.org/1999/xlink" x="0px" y="0px"
	 width="238.125px" height="232.5px" viewBox="0 0 238.125 232.5" enable-background="new 0 0 238.125 232.5" xml:space="preserve">
<g>
	<defs>
		<circle id="SVGID_1_" cx="117.312" cy="118.188" r="109.062"/>
	</defs>
	<clipPath id="SVGID_2_">
		<use xlink:href="#SVGID_1_"  overflow="visible"/>
	</clipPath>
	
		<circle clip-path="url(#SVGID_2_)" fill="#662D91" stroke="#FFFFFF" stroke-width="2" stroke-miterlimit="10" cx="155.777" cy="71.329" r="131.425"/>
	
		<circle clip-path="url(#SVGID_2_)" fill="#FFD71C" stroke="#FFFFFF" stroke-width="2" stroke-miterlimit="10" cx="218.531" cy="65.824" r="131.425"/>
	
		<circle clip-path="url(#SVGID_2_)" fill="#006837" stroke="#FFFFFF" stroke-width="2" stroke-miterlimit="10" cx="36.875" cy="-68.492" r="131.425"/>
	
		<circle clip-path="url(#SVGID_2_)" fill="#FF0000" stroke="#FFFFFF" stroke-width="2" stroke-miterlimit="10" cx="-68.816" cy="140.688" r="131.426"/>
	
		<circle clip-path="url(#SVGID_2_)" fill="#009245" stroke="#FFFFFF" stroke-width="2" stroke-miterlimit="10" cx="73" cy="250.576" r="101.494"/>
	
		<circle clip-path="url(#SVGID_2_)" fill="#FFFFFF" stroke="#FFFFFF" stroke-width="2" stroke-miterlimit="10" cx="80.706" cy="61.213" r="12.969"/>
	<polygon clip-path="url(#SVGID_2_)" fill="#FFFFFF" stroke="#FFFFFF" stroke-width="2" stroke-miterlimit="10" points="
		-9.09,149.083 61.784,94.036 83.57,118.849 131.969,44.493 160.882,130.522 175.727,104.719 232.43,149.569 	"/>
	<path clip-path="url(#SVGID_2_)" fill="#FFFFFF" stroke="#FFFFFF" stroke-width="2" stroke-miterlimit="10" d="M12.749,154.5
		c15.331,43,56.355,73.678,104.564,73.678S206.545,197.5,221.878,154.5H12.749z"/>
	<use xlink:href="#SVGID_1_"  overflow="visible" fill="none" stroke="#FFFFFF" stroke-width="2" stroke-miterlimit="10"/>
</g>
<rect x="61.438" y="126.625" fill="none" width="58.312" height="63.75"/>
<text transform="matrix(1 0 0 1 61.4375 179.875)" stroke="#FFFFFF" stroke-width="2" stroke-miterlimit="10" font-family="'ChunkFiveEx'" font-size="71">V</text>
<rect x="124" y="126.625" fill="none" width="58.312" height="63.75"/>
<text transform="matrix(1 0 0 1 124 179.875)" stroke="#FFFFFF" stroke-width="2" stroke-miterlimit="10" font-family="'ChunkFiveEx'" font-size="71">B</text>
<circle stroke="#FFFFFF" stroke-width="2" stroke-miterlimit="10" cx="113.125" cy="173.75" r="6.625"/>
<circle fill="none" cx="117.125" cy="119.688" r="99.062"/>
<text transform="matrix(0.5713 0.8208 -0.8208 0.5713 31.5483 170.1602)"><tspan x="0" y="0" font-family="'ChunkFiveEx'" font-size="19.0745">V</tspan><tspan x="15.676" y="-0.298" font-family="'ChunkFiveEx'" font-size="19.0745" rotate="-6.596">i</tspan><tspan x="22.732" y="-1.026" font-family="'ChunkFiveEx'" font-size="19.0745" rotate="-12.147">a</tspan><tspan x="34.693" y="-3.761" font-family="'ChunkFiveEx'" font-size="19.0745" rotate="-17.889">j</tspan><tspan x="42.034" y="-6.053" font-family="'ChunkFiveEx'" font-size="19.0745" rotate="-23.641">a</tspan><tspan x="53.5" y="-11.117" font-family="'ChunkFiveEx'" font-size="19.0745" rotate="-31.162">n</tspan><tspan x="64.952" y="-18.138" font-family="'ChunkFiveEx'" font-size="19.0745" rotate="-38.907">d</tspan><tspan x="75.13" y="-26.489" font-family="'ChunkFiveEx'" font-size="19.0745" rotate="-46.227">o</tspan><tspan x="83.053" y="-34.993" font-family="'ChunkFiveEx'" font-size="19.0745" rotate="-51.15"> </tspan><tspan x="86.698" y="-39.214" font-family="'ChunkFiveEx'" font-size="19.0745" rotate="-56.941">&amp;</tspan><tspan x="94.556" y="-51.794" font-family="'ChunkFiveEx'" font-size="19.0745" rotate="-62.813"> </tspan><tspan x="97.251" y="-56.68" font-family="'ChunkFiveEx'" font-size="19.0745" rotate="-68.461">B</tspan><tspan x="102.166" y="-69.757" font-family="'ChunkFiveEx'" font-size="19.0745" rotate="-74.632">l</tspan><tspan x="104.129" y="-76.621" font-family="'ChunkFiveEx'" font-size="19.0745" rotate="-80.125">o</tspan><tspan x="106.159" y="-88.453" font-family="'ChunkFiveEx'" font-size="19.0745" rotate="-87.437">g</tspan><tspan x="106.68" y="-101.747" font-family="'ChunkFiveEx'" font-size="19.0745" rotate="-95.1">g</tspan><tspan x="105.332" y="-114.7" font-family="'ChunkFiveEx'" font-size="19.0745" rotate="-100.888">i</tspan><tspan x="104.094" y="-121.727" font-family="'ChunkFiveEx'" font-size="19.0745" rotate="-106.721">n</tspan><tspan x="100.147" y="-134.594" font-family="'ChunkFiveEx'" font-size="19.0745" rotate="-114.44">g</tspan></text>
</svg>
