<?xml version="1.0" encoding="utf-8"?>
<!-- Generator: Adobe Illustrator 16.0.0, SVG Export Plug-In . SVG Version: 6.00 Build 0)  -->
<!DOCTYPE svg PUBLIC "-//W3C//DTD SVG 1.1//EN" "http://www.w3.org/Graphics/SVG/1.1/DTD/svg11.dtd">
<svg version="1.1" id="Layer_1" xmlns="http://www.w3.org/2000/svg" xmlns:xlink="http://www.w3.org/1999/xlink" x="0px" y="0px"
	 width="241.487px" height="231.179px" viewBox="0 0 241.487 231.179" enable-background="new 0 0 241.487 231.179"
	 xml:space="preserve">
<g>
	<defs>
		<circle id="SVGID_1_" cx="117.416" cy="113.397" r="90.559"/>
	</defs>
	<clipPath id="SVGID_2_">
		<use xlink:href="#SVGID_1_"  overflow="visible"/>
	</clipPath>
	
		<circle clip-path="url(#SVGID_2_)" fill="#006837" stroke="#FFFFFF" stroke-width="2" stroke-miterlimit="10" cx="154.378" cy="68.302" r="99.8"/>
	
		<circle clip-path="url(#SVGID_2_)" fill="#662D91" stroke="#FFFFFF" stroke-width="2" stroke-miterlimit="10" cx="72.074" cy="157.875" r="91.175"/>
	
		<circle clip-path="url(#SVGID_2_)" fill="#ED1C24" stroke="#FFFFFF" stroke-width="2" stroke-miterlimit="10" cx="98.502" cy="59.123" r="74.234"/>
	
		<circle clip-path="url(#SVGID_2_)" fill="#0000FF" stroke="#FFFFFF" stroke-width="2" stroke-miterlimit="10" cx="14.474" cy="139.086" r="94.563"/>
	
		<circle clip-path="url(#SVGID_2_)" fill="#FFFF00" stroke="#FFFFFF" stroke-width="2" stroke-miterlimit="10" cx="207.666" cy="216.955" r="94.563"/>
	<polygon clip-path="url(#SVGID_2_)" fill="#FFFFFF" stroke="#FFFFFF" stroke-width="2" stroke-miterlimit="10" points="
		13.796,136.365 78.851,77.63 91.479,100.577 135.157,45.762 164.111,119.399 191.957,103.773 226.332,136.365 	"/>
	<path clip-path="url(#SVGID_2_)" fill="#FFFFFF" stroke="#FFFFFF" stroke-width="2" stroke-miterlimit="10" d="M30.805,143.365
		c10.245,36,45.164,62.96,86.671,62.96c41.509,0,76.428-26.96,86.671-62.96H30.805z"/>
	<use xlink:href="#SVGID_1_"  overflow="visible" fill="none" stroke="#FFFFFF" stroke-width="2" stroke-miterlimit="10"/>
</g>
<rect x="63.08" y="118.941" fill="none" width="53.35" height="54.582"/>
<text transform="matrix(1 0 0 1 63.0801 169.2114)" stroke="#FFFFFF" stroke-width="3" stroke-miterlimit="10" font-family="'ChunkFiveEx'" font-size="67.026">V</text>
<rect x="118.401" y="118.941" fill="none" width="53.349" height="54.582"/>
<text transform="matrix(1 0 0 1 118.4023 169.2114)" stroke="#FFFFFF" stroke-width="3" stroke-miterlimit="10" font-family="'ChunkFiveEx'" font-size="67.026">B</text>
<circle fill="none" cx="118" cy="113.427" r="83.632"/>
<text transform="matrix(0.6994 0.7147 -0.7147 0.6994 54.4702 168.0815)"><tspan x="0" y="0" font-family="'ChunkFiveEx'" font-size="13.8905">V</tspan><tspan x="11.322" y="-0.179" font-family="'ChunkFiveEx'" font-size="13.8905" rotate="-5.616">i</tspan><tspan x="16.374" y="-0.619" font-family="'ChunkFiveEx'" font-size="13.8905" rotate="-10.353">a</tspan><tspan x="25.092" y="-2.308" font-family="'ChunkFiveEx'" font-size="13.8905" rotate="-15.288">j</tspan><tspan x="30.43" y="-3.715" font-family="'ChunkFiveEx'" font-size="13.8905" rotate="-20.22">a</tspan><tspan x="38.886" y="-6.852" font-family="'ChunkFiveEx'" font-size="13.8905" rotate="-26.657">n</tspan><tspan x="47.542" y="-11.25" font-family="'ChunkFiveEx'" font-size="13.8905" rotate="-33.292">d</tspan><tspan x="55.424" y="-16.497" font-family="'ChunkFiveEx'" font-size="13.8905" rotate="-39.506">o</tspan><tspan x="61.852" y="-21.925" font-family="'ChunkFiveEx'" font-size="13.8905" rotate="-43.692"> </tspan><tspan x="64.844" y="-24.614" font-family="'ChunkFiveEx'" font-size="13.8905" rotate="-48.657">&amp;</tspan><tspan x="71.797" y="-32.773" font-family="'ChunkFiveEx'" font-size="13.8905" rotate="-53.675"> </tspan><tspan x="74.248" y="-35.928" font-family="'ChunkFiveEx'" font-size="13.8905" rotate="-58.506">B</tspan><tspan x="79.396" y="-44.593" font-family="'ChunkFiveEx'" font-size="13.8905" rotate="-63.762">l</tspan><tspan x="81.707" y="-49.175" font-family="'ChunkFiveEx'" font-size="13.8905" rotate="-68.457">o</tspan><tspan x="84.871" y="-57.224" font-family="'ChunkFiveEx'" font-size="13.8905" rotate="-74.717">g</tspan><tspan x="87.359" y="-66.48" font-family="'ChunkFiveEx'" font-size="13.8905" rotate="-81.274">g</tspan><tspan x="88.674" y="-75.824" font-family="'ChunkFiveEx'" font-size="13.8905" rotate="-86.241">i</tspan><tspan x="89.083" y="-80.922" font-family="'ChunkFiveEx'" font-size="13.8905" rotate="-91.217">n</tspan><tspan x="88.834" y="-90.605" font-family="'ChunkFiveEx'" font-size="13.8905" rotate="-97.777">g</tspan></text>
<circle stroke="#FFFFFF" stroke-width="3" stroke-miterlimit="10" cx="113.719" cy="163.914" r="6"/>
</svg>
