<?xml version="1.0" encoding="utf-8"?>
<!-- Generator: Adobe Illustrator 16.0.0, SVG Export Plug-In . SVG Version: 6.00 Build 0)  -->
<!DOCTYPE svg PUBLIC "-//W3C//DTD SVG 1.1//EN" "http://www.w3.org/Graphics/SVG/1.1/DTD/svg11.dtd">
<svg version="1.1" id="Layer_1" xmlns="http://www.w3.org/2000/svg" xmlns:xlink="http://www.w3.org/1999/xlink" x="0px" y="0px"
	 width="294.5px" height="359.367px" viewBox="0 0 294.5 359.367" enable-background="new 0 0 294.5 359.367" xml:space="preserve">
<rect x="39.5" y="76.902" stroke="#000000" stroke-miterlimit="10" width="221.666" height="1"/>
<rect x="39.5" y="96.902" stroke="#000000" stroke-miterlimit="10" width="221.666" height="1"/>
<rect x="39.5" y="118.902" stroke="#000000" stroke-miterlimit="10" width="221.666" height="1"/>
<rect x="39.5" y="140.902" stroke="#000000" stroke-miterlimit="10" width="221.666" height="1"/>
<rect x="39.5" y="162.902" stroke="#000000" stroke-miterlimit="10" width="221.666" height="1"/>
<path fill="#F90606" d="M222.44,127.402c5.582-8,8.933-16.748,8.933-26.791c0-25.127-20.368-45.575-45.495-45.575
	c-15.256,0-28.747,7.477-37.001,19c-8.254-11.523-21.745-19.06-37-19.06c-25.126,0-45.496,20.283-45.496,45.41
	c0,9.974,3.191,19.017,8.612,26.017H74.98l0.059,0.141c1.83,2.433,3.904,4.72,6.204,6.752l67.752,73.337l67.126-72.703
	c2.315-2.053,4.42-4.169,6.28-6.638l0.047,0.111L222.44,127.402L222.44,127.402z"/>
<path stroke="#000000" stroke-miterlimit="10" d="M233.191,131.576c-4.929-7.577-17.982-7.827-29.155-0.56
	c-3.925,2.553-7.092,5.646-9.34,8.978l-0.03-119.093H190.5v1.354c-20,5.382-36.585,27.069-41.513,42.184
	c-0.487,1.493-0.85,2.982-1.113,4.468c-0.249-1.112-0.553-2.228-0.946-3.344C141.624,50.469,123.5,23.796,102.5,18.421v-1.521
	h-5.006L97.461,125.94c-2.42-3.325-5.83-6.333-10.055-8.883c-12.027-7.26-26.08-7.01-31.386,0.559
	c-5.307,7.567,0.142,19.683,12.17,26.941c12.029,7.26,26.08,7.106,31.387-0.462c1.136-1.621,1.776-3.194,1.966-5.194h0.477
	l0.028-85.643c16.786,7.415,29.844,32.956,36.443,45.579c1.134-4.959,0.908-10.116-0.914-15.296
	c-4.528-12.889-17.908-38.27-35.5-44.383l0.03-7.551c20.423,7.378,37.97,34.364,45.753,49.252c0.103-0.447,0.181-0.898,0.261-1.35
	c7.288-14.901,23.45-36.703,42.319-44.051l-0.002,7.56c-16.343,6.122-28.786,26.517-32.992,39.42
	c-1.692,5.188-1.91,10.352-0.856,15.315c6.13-12.639,18.256-33.188,33.849-40.61l0.022,95.757h0.443
	c0.176,2,0.771,3.571,1.826,5.194c4.93,7.577,17.982,7.729,29.156,0.459C233.06,151.287,238.121,139.153,233.191,131.576z"/>
<rect x="118.999" y="99.481" fill="none" width="142.167" height="126.843"/>
<text transform="matrix(1 0 0 1 118.999 162.2102)" fill="#FFFFFF" font-family="'Braggadocio'" font-size="82">b</text>
<text transform="matrix(1 0 0 1 118.999 162.2102)" fill="none" stroke="#000000" stroke-miterlimit="10" font-family="'Braggadocio'" font-size="82">b</text>
<g>
	<rect x="60.332" y="233.31" fill="none" width="185.333" height="49.989"/>
	<text transform="matrix(1 0 0 1 60.3315 270.7952)" font-family="'Braggadocio'" font-size="49">Music</text>
	
		<text transform="matrix(1 0 0 1 60.3315 270.7952)" fill="none" stroke="#FFFFFF" stroke-miterlimit="10" font-family="'Braggadocio'" font-size="49">Music</text>
</g>
<g>
	<rect x="79.875" y="290.367" fill="none" width="138.003" height="49.988"/>
	<text transform="matrix(1 0 0 1 79.8755 327.8528)" font-family="'Braggadocio'" font-size="49">blog</text>
	
		<text transform="matrix(1 0 0 1 79.8755 327.8528)" fill="none" stroke="#FFFFFF" stroke-miterlimit="10" font-family="'Braggadocio'" font-size="49">blog</text>
</g>
</svg>
