<?xml version="1.0" encoding="utf-8"?>
<!-- Generator: Adobe Illustrator 16.0.0, SVG Export Plug-In . SVG Version: 6.00 Build 0)  -->
<!DOCTYPE svg PUBLIC "-//W3C//DTD SVG 1.1//EN" "http://www.w3.org/Graphics/SVG/1.1/DTD/svg11.dtd">
<svg version="1.1" id="Layer_1" xmlns="http://www.w3.org/2000/svg" xmlns:xlink="http://www.w3.org/1999/xlink" x="0px" y="0px"
	 width="437.667px" height="307.833px" viewBox="0 0 437.667 307.833" enable-background="new 0 0 437.667 307.833"
	 xml:space="preserve">
<circle fill="#C1272D" cx="215.004" cy="146.675" r="107.158"/>
<text transform="matrix(1 0 0 1 155.3472 142.311)" fill="#FFFFFF" font-family="'Florence-Regular'" font-size="104.7093">G</text>
<text transform="matrix(1 -8.972208e-04 8.976456e-04 1 175.6528 206.8325)" fill="#FFFFFF" font-family="'Florence-Regular'" font-size="114.6022">A</text>
<path fill="#C1272D" d="M215.512,34.517c-62.224,0-112.666,50.442-112.666,112.666c0,62.225,50.442,112.667,112.666,112.667
	c62.225,0,112.667-50.442,112.667-112.667C328.179,84.959,277.737,34.517,215.512,34.517z M215.512,257.184
	c-60.751,0-109.999-49.248-109.999-110.001c0-60.75,49.248-109.999,109.999-109.999c60.752,0,110,49.248,110,109.999
	C325.512,207.936,276.264,257.184,215.512,257.184z"/>
</svg>
