<?xml version="1.0" encoding="utf-8"?>
<!-- Generator: Adobe Illustrator 16.0.0, SVG Export Plug-In . SVG Version: 6.00 Build 0)  -->
<!DOCTYPE svg PUBLIC "-//W3C//DTD SVG 1.1//EN" "http://www.w3.org/Graphics/SVG/1.1/DTD/svg11.dtd">
<svg version="1.1" id="Layer_1" xmlns="http://www.w3.org/2000/svg" xmlns:xlink="http://www.w3.org/1999/xlink" x="0px" y="0px"
	 width="640px" height="180.667px" viewBox="0 0 640 180.667" enable-background="new 0 0 640 180.667" xml:space="preserve">
<rect x="125.143" y="35.286" fill="none" width="480" height="50.714"/>
<text transform="matrix(1 0 0 1 216.1431 78.064)" font-family="'Florence-Regular'" font-size="62">stronomía</text>
<text transform="matrix(1 0 0 1 118.6436 76.9517)" font-family="'Florence-Regular'" font-size="65.7831">G</text>
<rect x="137.714" y="32.714" fill="none" width="423.571" height="114.286"/>
<text transform="matrix(0.7667 0 0 1 130.1909 138.9722)" fill="#C1272D" font-family="'Florence-Regular'" font-size="154" letter-spacing="-2.609">A</text>
<text transform="matrix(1 0 0 1 238.478 138.9722)" fill="#C1272D" font-family="'Florence-Regular'" font-size="62">trevida</text>
<line fill="none" stroke="#C1272D" stroke-width="4" stroke-miterlimit="10" x1="125" y1="92" x2="555" y2="92"/>
<path fill="#C1272D" stroke="#C1272D" stroke-width="4" stroke-miterlimit="10" d="M499.5,108.25
	C499.896,108.251,499.102,108.235,499.5,108.25C574.5,111,583.286,102,605.411,92H475l0,0C485.341,93.85,491.75,107.75,499.5,108.25
	z"/>
<path fill="#C1272D" d="M234.915,174.826"/>
<path fill="#C1272D" d="M234.915,172.548"/>
<path fill="#C1272D" d="M111,77c-0.337,0-0.668,0.027-1,0.051V77H59l0,0c0,0-1.319,0-2,0c-3.685,0-7.039,1.386-9.597,3.65
	L112,80.695v0.093c0-0.029,0.046-0.093,0.134-0.093c0.747,0,1.397,1.116,1.397,2.488c0,1.374-0.635,2.486-1.382,2.486
	c-0.088,0-0.148-0.062-0.148-0.094v0.094l-63.152-0.018l-5.99,1.223c-0.189,0.484-0.153,0.557-0.295,1.062l7.373,0.981L112,88.962
	v0.094c0-0.029,0.061-0.094,0.148-0.094c0.747,0,1.353,1.117,1.353,2.489c0,1.375-0.605,2.485-1.353,2.485
	c-0.088,0-0.148-0.062-0.148-0.095v0.095l-62.944-0.019l-6.494,0.77c0.131,0.619,0.364,0.559,0.563,1.148l5.829,1.502L112,97.382
	v0.094c0-0.029,0.061-0.094,0.148-0.094c0.747,0,1.353,1.117,1.353,2.488c0,1.375-0.605,2.486-1.353,2.486
	c-0.088,0-0.148-0.062-0.148-0.094v0.094l-64.609-0.02C49.951,104.609,53.309,106,57,106c0.681,0,2,0,2,0l0,0h51v-0.051
	c0.332,0.023,0.663,0.051,1,0.051c8.008,0,14.5-6.492,14.5-14.5C125.5,83.492,119.008,77,111,77z"/>
</svg>
