<?xml version="1.0" encoding="utf-8"?>
<!-- Generator: Adobe Illustrator 16.0.0, SVG Export Plug-In . SVG Version: 6.00 Build 0)  -->
<!DOCTYPE svg PUBLIC "-//W3C//DTD SVG 1.1//EN" "http://www.w3.org/Graphics/SVG/1.1/DTD/svg11.dtd">
<svg version="1.1" id="Layer_1" xmlns="http://www.w3.org/2000/svg" xmlns:xlink="http://www.w3.org/1999/xlink" x="0px" y="0px"
	 width="437.667px" height="372.417px" viewBox="0 0 437.667 372.417" enable-background="new 0 0 437.667 372.417"
	 xml:space="preserve">
<circle fill="#C1272D" cx="215.004" cy="146.675" r="107.158"/>
<text transform="matrix(1 0 0 1 155.3472 142.311)" fill="#FFFFFF" font-family="'Florence-Regular'" font-size="104.7093">G</text>
<text transform="matrix(1 -8.972208e-04 8.976456e-04 1 175.6528 206.8325)" fill="#FFFFFF" font-family="'Florence-Regular'" font-size="114.6022">A</text>
<path fill="#C1272D" d="M215.512,34.517c-62.224,0-112.666,50.442-112.666,112.666c0,62.226,50.442,112.667,112.666,112.667
	c62.225,0,112.667-50.441,112.667-112.667C328.179,84.959,277.737,34.517,215.512,34.517z M215.512,257.184
	c-60.751,0-109.999-49.248-109.999-110.001c0-60.75,49.248-109.999,109.999-109.999c60.752,0,109.999,49.248,109.999,109.999
	C325.511,207.936,276.264,257.184,215.512,257.184z"/>
<circle fill="none" cx="215.333" cy="154.416" r="132"/>
<text transform="matrix(0.3455 0.9384 -0.9384 0.3455 87.9971 190.7134)"><tspan x="0" y="0" fill="#FFFFFF" stroke="#FFFFFF" stroke-miterlimit="10" font-family="'Florence-Regular'" font-size="25">G</tspan><tspan x="21.474" y="-0.233" fill="#FFFFFF" stroke="#FFFFFF" stroke-miterlimit="10" font-family="'Florence-Regular'" font-size="25" rotate="-8.758">a</tspan><tspan x="39.692" y="-3.23" fill="#FFFFFF" stroke="#FFFFFF" stroke-miterlimit="10" font-family="'Florence-Regular'" font-size="25" rotate="-16.11">s</tspan><tspan x="54.151" y="-7.564" fill="#FFFFFF" stroke="#FFFFFF" stroke-miterlimit="10" font-family="'Florence-Regular'" font-size="25" rotate="-21.717">t</tspan><tspan x="64.248" y="-11.558" fill="#FFFFFF" stroke="#FFFFFF" stroke-miterlimit="10" font-family="'Florence-Regular'" font-size="25" rotate="-27.074">r</tspan><tspan x="76.983" y="-18.054" fill="#FFFFFF" stroke="#FFFFFF" stroke-miterlimit="10" font-family="'Florence-Regular'" font-size="25" rotate="-33.878">o</tspan><tspan x="91.411" y="-27.829" fill="#FFFFFF" stroke="#FFFFFF" stroke-miterlimit="10" font-family="'Florence-Regular'" font-size="25" rotate="-41.604">n</tspan><tspan x="104.935" y="-40.003" fill="#FFFFFF" stroke="#FFFFFF" stroke-miterlimit="10" font-family="'Florence-Regular'" font-size="25" rotate="-49.36">o</tspan><tspan x="116.649" y="-53.365" fill="#FFFFFF" stroke="#FFFFFF" stroke-miterlimit="10" font-family="'Florence-Regular'" font-size="25" rotate="-58.876">m</tspan><tspan x="129.297" y="-75.518" fill="#FFFFFF" stroke="#FFFFFF" stroke-miterlimit="10" font-family="'Florence-Regular'" font-size="25" rotate="-66.549">i</tspan><tspan x="133.236" y="-84.175" fill="#FFFFFF" stroke="#FFFFFF" stroke-miterlimit="10" font-family="'Florence-Regular'" font-size="25" rotate="-72.443">a</tspan><tspan x="138.506" y="-101.675" fill="#FFFFFF" stroke="#FFFFFF" stroke-miterlimit="10" font-family="'Florence-Regular'" font-size="25" rotate="-78.894"> </tspan><tspan x="140.754" y="-112.926" fill="#FFFFFF" stroke="#FFFFFF" stroke-miterlimit="10" font-family="'Florence-Regular'" font-size="25" rotate="-84.698">–</tspan><tspan x="142.003" y="-128.019" fill="#FFFFFF" stroke="#FFFFFF" stroke-miterlimit="10" font-family="'Florence-Regular'" font-size="25" rotate="-90.517"> </tspan><tspan x="142.271" y="-139.961" fill="#FFFFFF" stroke="#FFFFFF" stroke-miterlimit="10" font-family="'Florence-Regular'" font-size="25" rotate="-98.682">A</tspan><tspan x="137.823" y="-165.106" fill="#FFFFFF" stroke="#FFFFFF" stroke-miterlimit="10" font-family="'Florence-Regular'" font-size="25" rotate="-106.677">t</tspan><tspan x="134.73" y="-175.524" fill="#FFFFFF" stroke="#FFFFFF" stroke-miterlimit="10" font-family="'Florence-Regular'" font-size="25" rotate="-112.046">r</tspan><tspan x="129.364" y="-188.643" fill="#FFFFFF" stroke="#FFFFFF" stroke-miterlimit="10" font-family="'Florence-Regular'" font-size="25" rotate="-118.281">e</tspan><tspan x="122.307" y="-201.575" fill="#FFFFFF" stroke="#FFFFFF" stroke-miterlimit="10" font-family="'Florence-Regular'" font-size="25" rotate="-124.427">v</tspan><tspan x="114.572" y="-212.633" fill="#FFFFFF" stroke="#FFFFFF" stroke-miterlimit="10" font-family="'Florence-Regular'" font-size="25" rotate="-129.382">i</tspan><tspan x="108.62" y="-220.109" fill="#FFFFFF" stroke="#FFFFFF" stroke-miterlimit="10" font-family="'Florence-Regular'" font-size="25" rotate="-135.232">d</tspan><tspan x="95.972" y="-232.55" fill="#FFFFFF" stroke="#FFFFFF" stroke-miterlimit="10" font-family="'Florence-Regular'" font-size="25" rotate="-143.157">a</tspan></text>
</svg>
